# xmcd
#
# Track frame offsets: 
#        150
#        21681
#        28323
#        51118
#        57726
#        79208
#        84756
#        107459
#        118408
#        124814
#        145790
#        154561
#        159714
#        181469
#        188381
#        202633
#        211333
#        230763
#        235711
#        256131
#        261182
#
# Disc length: 3565 seconds
#
# Revision: 0
# Processed by: cddbd v1.5.2PL0 Copyright (c) Steve Scherf et al.
# Submitted via: ExactAudioCopyFreeDBPlugin 1.0
#
DISCID=210deb15
DTITLE=Phil French - Beyond This World (2008)
DYEAR=2008
DGENRE=Smooth Jazz Sax
TTITLE0=Fellowship
TTITLE1=The Morning Light
TTITLE2=Just Call Me
TTITLE3=Just Call Me (Reprise) [feat. Tony Hinton]
TTITLE4=A Beautiful Place
TTITLE5=My New Worship
TTITLE6=I Just Wanna Say, "Thank You!"
TTITLE7=The One
TTITLE8=September 5
TTITLE9=Always There
TTITLE10=Always There (Reprise) [feat. Stan Cooper]
TTITLE11=I'm Going Away
TTITLE12=My Lawdeey!
TTITLE13=Fellowship (Reprise) [feat. Alvin White]
TTITLE14=I'll Do Anything
TTITLE15=Never Let Me Go [feat. Chaz D]
TTITLE16=For Me To Know
TTITLE17=Alays There Reprise
TTITLE18=Keep Doin'
TTITLE19=Never Let Me Go Remix [feat. Mark Walker]
TTITLE20=Untitled
EXTD=
EXTT0=
EXTT1=
EXTT2=
EXTT3=
EXTT4=
EXTT5=
EXTT6=
EXTT7=
EXTT8=
EXTT9=
EXTT10=
EXTT11=
EXTT12=
EXTT13=
EXTT14=
EXTT15=
EXTT16=
EXTT17=
EXTT18=
EXTT19=
EXTT20=
PLAYORDER=
